<?xml version="1.0" standalone="yes"?>
<!-- SVG graphic -->
<svg xmlns='http://www.w3.org/2000/svg' xmlns:xlink='http://www.w3.org/1999/xlink'
width="45px" height="45px" preserveAspectRatio="xMinYMin meet" viewBox="0 0 45 45" version="1.1">
<rect x="5" y="0" width="2.5" height="2.5" fill="rgb(5,0,249)" tooltip="enable"><title>(1,0 1)</title></rect><rect x="10" y="0" width="2.5" height="2.5" fill="rgb(16,0,238)" tooltip="enable"><title>(2,0 3)</title></rect><rect x="15" y="0" width="2.5" height="2.5" fill="rgb(86,0,168)" tooltip="enable"><title>(3,0 16)</title></rect><rect x="20" y="0" width="2.5" height="2.5" fill="rgb(54,0,200)" tooltip="enable"><title>(4,0 10)</title></rect><rect x="25" y="0" width="2.5" height="2.5" fill="rgb(97,0,157)" tooltip="enable"><title>(5,0 18)</title></rect><rect x="15" y="10" width="2.5" height="2.5" fill="rgb(48,0,206)" tooltip="enable"><title>(3,2 9)</title></rect><rect x="20" y="10" width="2.5" height="2.5" fill="rgb(32,0,222)" tooltip="enable"><title>(4,2 6)</title></rect><rect x="25" y="10" width="2.5" height="2.5" fill="rgb(59,0,195)" tooltip="enable"><title>(5,2 11)</title></rect><rect x="20" y="15" width="2.5" height="2.5" fill="rgb(217,0,37)" tooltip="enable"><title>(4,3 40)</title></rect><rect x="25" y="15" width="2.5" height="2.5" fill="rgb(255,0,0)" tooltip="enable"><title>(5,3 47)</title></rect><rect x="25" y="20" width="2.5" height="2.5" fill="rgb(222,0,32)" tooltip="enable"><title>(5,4 41)</title></rect><text x="35" y="5" font-size="5" fill="black">0</text>
<text x="35" y="25" font-size="5" fill="black">6</text>
<polyline points="35,10,35,20" stroke="black" stroke-width="1" fill="none"/>
<text x="5" y="35" font-size="5" fill="black">0</text>
<text x="25" y="35" font-size="5" fill="black">6</text>
<polyline points="10,35,20,35" stroke="black" stroke-width="1" fill="none"/>
</svg>