<?xml version="1.0" standalone="yes"?>
<!-- SVG graphic -->
<svg xmlns='http://www.w3.org/2000/svg' xmlns:xlink='http://www.w3.org/1999/xlink'
width="50px" height="50px" preserveAspectRatio="xMinYMin meet" viewBox="0 0 50 50" version="1.1">
<rect x="5" y="0" width="2.5" height="2.5" fill="rgb(4,0,250)" tooltip="enable"><title>(1,0 1)</title></rect><rect x="10" y="0" width="2.5" height="2.5" fill="rgb(16,0,238)" tooltip="enable"><title>(2,0 4)</title></rect><rect x="15" y="0" width="2.5" height="2.5" fill="rgb(64,0,190)" tooltip="enable"><title>(3,0 16)</title></rect><rect x="20" y="0" width="2.5" height="2.5" fill="rgb(85,0,169)" tooltip="enable"><title>(4,0 21)</title></rect><rect x="25" y="0" width="2.5" height="2.5" fill="rgb(52,0,202)" tooltip="enable"><title>(5,0 13)</title></rect><rect x="30" y="0" width="2.5" height="2.5" fill="rgb(109,0,145)" tooltip="enable"><title>(6,0 27)</title></rect><rect x="10" y="5" width="2.5" height="2.5" fill="rgb(4,0,250)" tooltip="enable"><title>(2,1 1)</title></rect><rect x="25" y="5" width="2.5" height="2.5" fill="rgb(4,0,250)" tooltip="enable"><title>(5,1 1)</title></rect><rect x="15" y="10" width="2.5" height="2.5" fill="rgb(174,0,80)" tooltip="enable"><title>(3,2 43)</title></rect><rect x="20" y="10" width="2.5" height="2.5" fill="rgb(190,0,64)" tooltip="enable"><title>(4,2 47)</title></rect><rect x="25" y="10" width="2.5" height="2.5" fill="rgb(153,0,101)" tooltip="enable"><title>(5,2 38)</title></rect><rect x="30" y="10" width="2.5" height="2.5" fill="rgb(145,0,109)" tooltip="enable"><title>(6,2 36)</title></rect><rect x="20" y="15" width="2.5" height="2.5" fill="rgb(161,0,93)" tooltip="enable"><title>(4,3 40)</title></rect><rect x="25" y="15" width="2.5" height="2.5" fill="rgb(182,0,72)" tooltip="enable"><title>(5,3 45)</title></rect><rect x="30" y="15" width="2.5" height="2.5" fill="rgb(218,0,36)" tooltip="enable"><title>(6,3 54)</title></rect><rect x="25" y="20" width="2.5" height="2.5" fill="rgb(206,0,48)" tooltip="enable"><title>(5,4 51)</title></rect><rect x="30" y="20" width="2.5" height="2.5" fill="rgb(250,0,4)" tooltip="enable"><title>(6,4 62)</title></rect><rect x="30" y="25" width="2.5" height="2.5" fill="rgb(255,0,0)" tooltip="enable"><title>(6,5 63)</title></rect><text x="40" y="5" font-size="5" fill="black">0</text>
<text x="40" y="30" font-size="5" fill="black">7</text>
<polyline points="40,10,40,25" stroke="black" stroke-width="1" fill="none"/>
<text x="5" y="40" font-size="5" fill="black">0</text>
<text x="30" y="40" font-size="5" fill="black">7</text>
<polyline points="10,40,25,40" stroke="black" stroke-width="1" fill="none"/>
</svg>