<?xml version="1.0" standalone="yes"?>
<!-- SVG graphic -->
<svg xmlns='http://www.w3.org/2000/svg' xmlns:xlink='http://www.w3.org/1999/xlink'
width="80px" height="80px" preserveAspectRatio="xMinYMin meet" viewBox="0 0 80 80" version="1.1">
<rect x="5" y="0" width="2.5" height="2.5" fill="rgb(255,0,0)" tooltip="enable"><title>(1,0 1040)</title></rect><rect x="10" y="0" width="2.5" height="2.5" fill="rgb(180,0,74)" tooltip="enable"><title>(2,0 735)</title></rect><rect x="15" y="0" width="2.5" height="2.5" fill="rgb(141,0,113)" tooltip="enable"><title>(3,0 579)</title></rect><rect x="20" y="0" width="2.5" height="2.5" fill="rgb(90,0,164)" tooltip="enable"><title>(4,0 369)</title></rect><rect x="25" y="0" width="2.5" height="2.5" fill="rgb(63,0,191)" tooltip="enable"><title>(5,0 260)</title></rect><rect x="30" y="0" width="2.5" height="2.5" fill="rgb(15,0,239)" tooltip="enable"><title>(6,0 62)</title></rect><rect x="35" y="0" width="2.5" height="2.5" fill="rgb(19,0,235)" tooltip="enable"><title>(7,0 79)</title></rect><rect x="40" y="0" width="2.5" height="2.5" fill="rgb(17,0,237)" tooltip="enable"><title>(8,0 72)</title></rect><rect x="45" y="0" width="2.5" height="2.5" fill="rgb(19,0,235)" tooltip="enable"><title>(9,0 81)</title></rect><rect x="50" y="0" width="2.5" height="2.5" fill="rgb(24,0,230)" tooltip="enable"><title>(10,0 98)</title></rect><rect x="55" y="0" width="2.5" height="2.5" fill="rgb(25,0,229)" tooltip="enable"><title>(11,0 104)</title></rect><rect x="60" y="0" width="2.5" height="2.5" fill="rgb(21,0,233)" tooltip="enable"><title>(12,0 88)</title></rect><rect x="10" y="5" width="2.5" height="2.5" fill="rgb(221,0,33)" tooltip="enable"><title>(2,1 902)</title></rect><rect x="15" y="5" width="2.5" height="2.5" fill="rgb(159,0,95)" tooltip="enable"><title>(3,1 649)</title></rect><rect x="20" y="5" width="2.5" height="2.5" fill="rgb(108,0,146)" tooltip="enable"><title>(4,1 442)</title></rect><rect x="25" y="5" width="2.5" height="2.5" fill="rgb(66,0,188)" tooltip="enable"><title>(5,1 270)</title></rect><rect x="30" y="5" width="2.5" height="2.5" fill="rgb(15,0,239)" tooltip="enable"><title>(6,1 64)</title></rect><rect x="35" y="5" width="2.5" height="2.5" fill="rgb(17,0,237)" tooltip="enable"><title>(7,1 72)</title></rect><rect x="40" y="5" width="2.5" height="2.5" fill="rgb(20,0,234)" tooltip="enable"><title>(8,1 85)</title></rect><rect x="45" y="5" width="2.5" height="2.5" fill="rgb(17,0,237)" tooltip="enable"><title>(9,1 73)</title></rect><rect x="50" y="5" width="2.5" height="2.5" fill="rgb(22,0,232)" tooltip="enable"><title>(10,1 92)</title></rect><rect x="55" y="5" width="2.5" height="2.5" fill="rgb(25,0,229)" tooltip="enable"><title>(11,1 103)</title></rect><rect x="60" y="5" width="2.5" height="2.5" fill="rgb(20,0,234)" tooltip="enable"><title>(12,1 82)</title></rect><rect x="15" y="10" width="2.5" height="2.5" fill="rgb(215,0,39)" tooltip="enable"><title>(3,2 879)</title></rect><rect x="20" y="10" width="2.5" height="2.5" fill="rgb(131,0,123)" tooltip="enable"><title>(4,2 537)</title></rect><rect x="25" y="10" width="2.5" height="2.5" fill="rgb(87,0,167)" tooltip="enable"><title>(5,2 355)</title></rect><rect x="30" y="10" width="2.5" height="2.5" fill="rgb(17,0,237)" tooltip="enable"><title>(6,2 70)</title></rect><rect x="35" y="10" width="2.5" height="2.5" fill="rgb(17,0,237)" tooltip="enable"><title>(7,2 71)</title></rect><rect x="40" y="10" width="2.5" height="2.5" fill="rgb(18,0,236)" tooltip="enable"><title>(8,2 75)</title></rect><rect x="45" y="10" width="2.5" height="2.5" fill="rgb(20,0,234)" tooltip="enable"><title>(9,2 83)</title></rect><rect x="50" y="10" width="2.5" height="2.5" fill="rgb(26,0,228)" tooltip="enable"><title>(10,2 110)</title></rect><rect x="55" y="10" width="2.5" height="2.5" fill="rgb(24,0,230)" tooltip="enable"><title>(11,2 100)</title></rect><rect x="60" y="10" width="2.5" height="2.5" fill="rgb(23,0,231)" tooltip="enable"><title>(12,2 97)</title></rect><rect x="20" y="15" width="2.5" height="2.5" fill="rgb(203,0,51)" tooltip="enable"><title>(4,3 830)</title></rect><rect x="25" y="15" width="2.5" height="2.5" fill="rgb(125,0,129)" tooltip="enable"><title>(5,3 510)</title></rect><rect x="30" y="15" width="2.5" height="2.5" fill="rgb(16,0,238)" tooltip="enable"><title>(6,3 68)</title></rect><rect x="35" y="15" width="2.5" height="2.5" fill="rgb(19,0,235)" tooltip="enable"><title>(7,3 78)</title></rect><rect x="40" y="15" width="2.5" height="2.5" fill="rgb(19,0,235)" tooltip="enable"><title>(8,3 81)</title></rect><rect x="45" y="15" width="2.5" height="2.5" fill="rgb(21,0,233)" tooltip="enable"><title>(9,3 86)</title></rect><rect x="50" y="15" width="2.5" height="2.5" fill="rgb(25,0,229)" tooltip="enable"><title>(10,3 102)</title></rect><rect x="55" y="15" width="2.5" height="2.5" fill="rgb(21,0,233)" tooltip="enable"><title>(11,3 88)</title></rect><rect x="60" y="15" width="2.5" height="2.5" fill="rgb(23,0,231)" tooltip="enable"><title>(12,3 97)</title></rect><rect x="25" y="20" width="2.5" height="2.5" fill="rgb(193,0,61)" tooltip="enable"><title>(5,4 788)</title></rect><rect x="30" y="20" width="2.5" height="2.5" fill="rgb(21,0,233)" tooltip="enable"><title>(6,4 86)</title></rect><rect x="35" y="20" width="2.5" height="2.5" fill="rgb(20,0,234)" tooltip="enable"><title>(7,4 82)</title></rect><rect x="40" y="20" width="2.5" height="2.5" fill="rgb(25,0,229)" tooltip="enable"><title>(8,4 104)</title></rect><rect x="45" y="20" width="2.5" height="2.5" fill="rgb(23,0,231)" tooltip="enable"><title>(9,4 96)</title></rect><rect x="50" y="20" width="2.5" height="2.5" fill="rgb(25,0,229)" tooltip="enable"><title>(10,4 105)</title></rect><rect x="55" y="20" width="2.5" height="2.5" fill="rgb(27,0,227)" tooltip="enable"><title>(11,4 113)</title></rect><rect x="60" y="20" width="2.5" height="2.5" fill="rgb(22,0,232)" tooltip="enable"><title>(12,4 93)</title></rect><rect x="30" y="25" width="2.5" height="2.5" fill="rgb(24,0,230)" tooltip="enable"><title>(6,5 101)</title></rect><rect x="35" y="25" width="2.5" height="2.5" fill="rgb(25,0,229)" tooltip="enable"><title>(7,5 106)</title></rect><rect x="40" y="25" width="2.5" height="2.5" fill="rgb(22,0,232)" tooltip="enable"><title>(8,5 91)</title></rect><rect x="45" y="25" width="2.5" height="2.5" fill="rgb(21,0,233)" tooltip="enable"><title>(9,5 88)</title></rect><rect x="50" y="25" width="2.5" height="2.5" fill="rgb(23,0,231)" tooltip="enable"><title>(10,5 97)</title></rect><rect x="55" y="25" width="2.5" height="2.5" fill="rgb(26,0,228)" tooltip="enable"><title>(11,5 108)</title></rect><rect x="60" y="25" width="2.5" height="2.5" fill="rgb(25,0,229)" tooltip="enable"><title>(12,5 106)</title></rect><rect x="35" y="30" width="2.5" height="2.5" fill="rgb(151,0,103)" tooltip="enable"><title>(7,6 618)</title></rect><rect x="40" y="30" width="2.5" height="2.5" fill="rgb(113,0,141)" tooltip="enable"><title>(8,6 464)</title></rect><rect x="45" y="30" width="2.5" height="2.5" fill="rgb(83,0,171)" tooltip="enable"><title>(9,6 339)</title></rect><rect x="50" y="30" width="2.5" height="2.5" fill="rgb(68,0,186)" tooltip="enable"><title>(10,6 280)</title></rect><rect x="55" y="30" width="2.5" height="2.5" fill="rgb(46,0,208)" tooltip="enable"><title>(11,6 190)</title></rect><rect x="60" y="30" width="2.5" height="2.5" fill="rgb(27,0,227)" tooltip="enable"><title>(12,6 114)</title></rect><rect x="40" y="35" width="2.5" height="2.5" fill="rgb(159,0,95)" tooltip="enable"><title>(8,7 652)</title></rect><rect x="45" y="35" width="2.5" height="2.5" fill="rgb(114,0,140)" tooltip="enable"><title>(9,7 467)</title></rect><rect x="50" y="35" width="2.5" height="2.5" fill="rgb(88,0,166)" tooltip="enable"><title>(10,7 359)</title></rect><rect x="55" y="35" width="2.5" height="2.5" fill="rgb(56,0,198)" tooltip="enable"><title>(11,7 232)</title></rect><rect x="60" y="35" width="2.5" height="2.5" fill="rgb(27,0,227)" tooltip="enable"><title>(12,7 111)</title></rect><rect x="45" y="40" width="2.5" height="2.5" fill="rgb(173,0,81)" tooltip="enable"><title>(9,8 709)</title></rect><rect x="50" y="40" width="2.5" height="2.5" fill="rgb(125,0,129)" tooltip="enable"><title>(10,8 511)</title></rect><rect x="55" y="40" width="2.5" height="2.5" fill="rgb(72,0,182)" tooltip="enable"><title>(11,8 295)</title></rect><rect x="60" y="40" width="2.5" height="2.5" fill="rgb(25,0,229)" tooltip="enable"><title>(12,8 104)</title></rect><rect x="50" y="45" width="2.5" height="2.5" fill="rgb(192,0,62)" tooltip="enable"><title>(10,9 787)</title></rect><rect x="55" y="45" width="2.5" height="2.5" fill="rgb(116,0,138)" tooltip="enable"><title>(11,9 477)</title></rect><rect x="60" y="45" width="2.5" height="2.5" fill="rgb(25,0,229)" tooltip="enable"><title>(12,9 104)</title></rect><rect x="55" y="50" width="2.5" height="2.5" fill="rgb(213,0,41)" tooltip="enable"><title>(11,10 870)</title></rect><rect x="60" y="50" width="2.5" height="2.5" fill="rgb(26,0,228)" tooltip="enable"><title>(12,10 110)</title></rect><rect x="60" y="55" width="2.5" height="2.5" fill="rgb(28,0,226)" tooltip="enable"><title>(12,11 115)</title></rect><text x="70" y="5" font-size="5" fill="black">0</text>
<text x="70" y="60" font-size="5" fill="black">13</text>
<polyline points="70,10,70,55" stroke="black" stroke-width="1" fill="none"/>
<text x="5" y="70" font-size="5" fill="black">0</text>
<text x="60" y="70" font-size="5" fill="black">13</text>
<polyline points="10,70,55,70" stroke="black" stroke-width="1" fill="none"/>
</svg>