<?xml version="1.0" standalone="yes"?>
<!-- SVG graphic -->
<svg xmlns='http://www.w3.org/2000/svg' xmlns:xlink='http://www.w3.org/1999/xlink'
width="80px" height="80px" preserveAspectRatio="xMinYMin meet" viewBox="0 0 80 80" version="1.1">
<rect x="5" y="0" width="2.5" height="2.5" fill="rgb(255,0,0)" tooltip="enable"><title>(1,0 964)</title></rect><rect x="10" y="0" width="2.5" height="2.5" fill="rgb(170,0,84)" tooltip="enable"><title>(2,0 645)</title></rect><rect x="15" y="0" width="2.5" height="2.5" fill="rgb(125,0,129)" tooltip="enable"><title>(3,0 475)</title></rect><rect x="20" y="0" width="2.5" height="2.5" fill="rgb(78,0,176)" tooltip="enable"><title>(4,0 295)</title></rect><rect x="25" y="0" width="2.5" height="2.5" fill="rgb(44,0,210)" tooltip="enable"><title>(5,0 167)</title></rect><rect x="10" y="5" width="2.5" height="2.5" fill="rgb(217,0,37)" tooltip="enable"><title>(2,1 822)</title></rect><rect x="15" y="5" width="2.5" height="2.5" fill="rgb(147,0,107)" tooltip="enable"><title>(3,1 559)</title></rect><rect x="20" y="5" width="2.5" height="2.5" fill="rgb(93,0,161)" tooltip="enable"><title>(4,1 352)</title></rect><rect x="25" y="5" width="2.5" height="2.5" fill="rgb(49,0,205)" tooltip="enable"><title>(5,1 186)</title></rect><rect x="15" y="10" width="2.5" height="2.5" fill="rgb(209,0,45)" tooltip="enable"><title>(3,2 791)</title></rect><rect x="20" y="10" width="2.5" height="2.5" fill="rgb(123,0,131)" tooltip="enable"><title>(4,2 468)</title></rect><rect x="25" y="10" width="2.5" height="2.5" fill="rgb(71,0,183)" tooltip="enable"><title>(5,2 272)</title></rect><rect x="20" y="15" width="2.5" height="2.5" fill="rgb(199,0,55)" tooltip="enable"><title>(4,3 755)</title></rect><rect x="25" y="15" width="2.5" height="2.5" fill="rgb(111,0,143)" tooltip="enable"><title>(5,3 423)</title></rect><rect x="25" y="20" width="2.5" height="2.5" fill="rgb(188,0,66)" tooltip="enable"><title>(5,4 711)</title></rect><rect x="35" y="30" width="2.5" height="2.5" fill="rgb(148,0,106)" tooltip="enable"><title>(7,6 562)</title></rect><rect x="40" y="30" width="2.5" height="2.5" fill="rgb(103,0,151)" tooltip="enable"><title>(8,6 390)</title></rect><rect x="45" y="30" width="2.5" height="2.5" fill="rgb(64,0,190)" tooltip="enable"><title>(9,6 242)</title></rect><rect x="50" y="30" width="2.5" height="2.5" fill="rgb(43,0,211)" tooltip="enable"><title>(10,6 165)</title></rect><rect x="55" y="30" width="2.5" height="2.5" fill="rgb(17,0,237)" tooltip="enable"><title>(11,6 65)</title></rect><rect x="40" y="35" width="2.5" height="2.5" fill="rgb(153,0,101)" tooltip="enable"><title>(8,7 579)</title></rect><rect x="45" y="35" width="2.5" height="2.5" fill="rgb(105,0,149)" tooltip="enable"><title>(9,7 399)</title></rect><rect x="50" y="35" width="2.5" height="2.5" fill="rgb(63,0,191)" tooltip="enable"><title>(10,7 239)</title></rect><rect x="55" y="35" width="2.5" height="2.5" fill="rgb(30,0,224)" tooltip="enable"><title>(11,7 117)</title></rect><rect x="45" y="40" width="2.5" height="2.5" fill="rgb(164,0,90)" tooltip="enable"><title>(9,8 622)</title></rect><rect x="50" y="40" width="2.5" height="2.5" fill="rgb(108,0,146)" tooltip="enable"><title>(10,8 412)</title></rect><rect x="55" y="40" width="2.5" height="2.5" fill="rgb(48,0,206)" tooltip="enable"><title>(11,8 183)</title></rect><rect x="50" y="45" width="2.5" height="2.5" fill="rgb(187,0,67)" tooltip="enable"><title>(10,9 709)</title></rect><rect x="55" y="45" width="2.5" height="2.5" fill="rgb(98,0,156)" tooltip="enable"><title>(11,9 372)</title></rect><rect x="55" y="50" width="2.5" height="2.5" fill="rgb(208,0,46)" tooltip="enable"><title>(11,10 788)</title></rect><text x="70" y="5" font-size="5" fill="black">0</text>
<text x="70" y="60" font-size="5" fill="black">13</text>
<polyline points="70,10,70,55" stroke="black" stroke-width="1" fill="none"/>
<text x="5" y="70" font-size="5" fill="black">0</text>
<text x="60" y="70" font-size="5" fill="black">13</text>
<polyline points="10,70,55,70" stroke="black" stroke-width="1" fill="none"/>
</svg>