<?xml version="1.0" standalone="yes"?>
<!-- SVG graphic -->
<svg xmlns='http://www.w3.org/2000/svg' xmlns:xlink='http://www.w3.org/1999/xlink'
 version="1.1">
<rect x="0" y="0" width="6" height="200" stroke="black" stroke-width="1" fill="blue" tooltip="enable"><title>(0,2855)</title></rect><rect x="6" y="111.033" width="6" height="88.9667" stroke="black" stroke-width="1" fill="blue" tooltip="enable"><title>(0.0170274,1270)</title></rect><rect x="12" y="130.088" width="6" height="69.9124" stroke="black" stroke-width="1" fill="blue" tooltip="enable"><title>(0.0340549,998)</title></rect><rect x="18" y="140.665" width="6" height="59.3345" stroke="black" stroke-width="1" fill="blue" tooltip="enable"><title>(0.0510823,847)</title></rect><rect x="24" y="153.625" width="6" height="46.3748" stroke="black" stroke-width="1" fill="blue" tooltip="enable"><title>(0.0681097,662)</title></rect><rect x="30" y="163.082" width="6" height="36.9177" stroke="black" stroke-width="1" fill="blue" tooltip="enable"><title>(0.0851372,527)</title></rect><rect x="36" y="165.394" width="6" height="34.606" stroke="black" stroke-width="1" fill="blue" tooltip="enable"><title>(0.102165,494)</title></rect><rect x="42" y="173.52" width="6" height="26.4799" stroke="black" stroke-width="1" fill="blue" tooltip="enable"><title>(0.119192,378)</title></rect><rect x="48" y="178.984" width="6" height="21.0158" stroke="black" stroke-width="1" fill="blue" tooltip="enable"><title>(0.136219,300)</title></rect><rect x="54" y="180.385" width="6" height="19.6147" stroke="black" stroke-width="1" fill="blue" tooltip="enable"><title>(0.153247,280)</title></rect><rect x="60" y="183.678" width="6" height="16.3222" stroke="black" stroke-width="1" fill="blue" tooltip="enable"><title>(0.170274,233)</title></rect><rect x="66" y="189.632" width="6" height="10.3678" stroke="black" stroke-width="1" fill="blue" tooltip="enable"><title>(0.187302,148)</title></rect><rect x="72" y="189.562" width="6" height="10.4378" stroke="black" stroke-width="1" fill="blue" tooltip="enable"><title>(0.204329,149)</title></rect><rect x="78" y="190.263" width="6" height="9.7373" stroke="black" stroke-width="1" fill="blue" tooltip="enable"><title>(0.221357,139)</title></rect><rect x="84" y="191.734" width="6" height="8.2662" stroke="black" stroke-width="1" fill="blue" tooltip="enable"><title>(0.238384,118)</title></rect><rect x="90" y="192.855" width="6" height="7.14536" stroke="black" stroke-width="1" fill="blue" tooltip="enable"><title>(0.255412,102)</title></rect><rect x="96" y="192.925" width="6" height="7.07531" stroke="black" stroke-width="1" fill="blue" tooltip="enable"><title>(0.272439,101)</title></rect><rect x="102" y="193.695" width="6" height="6.30473" stroke="black" stroke-width="1" fill="blue" tooltip="enable"><title>(0.289466,90)</title></rect><rect x="108" y="195.937" width="6" height="4.06305" stroke="black" stroke-width="1" fill="blue" tooltip="enable"><title>(0.306494,58)</title></rect><rect x="114" y="195.727" width="6" height="4.27321" stroke="black" stroke-width="1" fill="blue" tooltip="enable"><title>(0.323521,61)</title></rect><rect x="120" y="195.937" width="6" height="4.06305" stroke="black" stroke-width="1" fill="blue" tooltip="enable"><title>(0.340549,58)</title></rect><rect x="126" y="196.708" width="6" height="3.29247" stroke="black" stroke-width="1" fill="blue" tooltip="enable"><title>(0.357576,47)</title></rect><rect x="132" y="197.618" width="6" height="2.38179" stroke="black" stroke-width="1" fill="blue" tooltip="enable"><title>(0.374604,34)</title></rect><rect x="138" y="197.898" width="6" height="2.10158" stroke="black" stroke-width="1" fill="blue" tooltip="enable"><title>(0.391631,30)</title></rect><rect x="144" y="198.109" width="6" height="1.89142" stroke="black" stroke-width="1" fill="blue" tooltip="enable"><title>(0.408658,27)</title></rect><rect x="150" y="198.599" width="6" height="1.40105" stroke="black" stroke-width="1" fill="blue" tooltip="enable"><title>(0.425686,20)</title></rect><rect x="156" y="197.548" width="6" height="2.45184" stroke="black" stroke-width="1" fill="blue" tooltip="enable"><title>(0.442713,35)</title></rect><rect x="162" y="198.389" width="6" height="1.61121" stroke="black" stroke-width="1" fill="blue" tooltip="enable"><title>(0.459741,23)</title></rect><rect x="168" y="198.669" width="6" height="1.331" stroke="black" stroke-width="1" fill="blue" tooltip="enable"><title>(0.476768,19)</title></rect><rect x="174" y="198.739" width="6" height="1.26095" stroke="black" stroke-width="1" fill="blue" tooltip="enable"><title>(0.493796,18)</title></rect><rect x="180" y="198.809" width="6" height="1.19089" stroke="black" stroke-width="1" fill="blue" tooltip="enable"><title>(0.510823,17)</title></rect><rect x="186" y="198.949" width="6" height="1.05079" stroke="black" stroke-width="1" fill="blue" tooltip="enable"><title>(0.52785,15)</title></rect><rect x="192" y="199.159" width="6" height="0.840631" stroke="black" stroke-width="1" fill="blue" tooltip="enable"><title>(0.544878,12)</title></rect><rect x="198" y="199.58" width="6" height="0.420315" stroke="black" stroke-width="1" fill="blue" tooltip="enable"><title>(0.561905,6)</title></rect><rect x="204" y="198.879" width="6" height="1.12084" stroke="black" stroke-width="1" fill="blue" tooltip="enable"><title>(0.578933,16)</title></rect><rect x="210" y="199.44" width="6" height="0.56042" stroke="black" stroke-width="1" fill="blue" tooltip="enable"><title>(0.59596,8)</title></rect><rect x="216" y="199.58" width="6" height="0.420315" stroke="black" stroke-width="1" fill="blue" tooltip="enable"><title>(0.612988,6)</title></rect><rect x="222" y="199.37" width="6" height="0.630473" stroke="black" stroke-width="1" fill="blue" tooltip="enable"><title>(0.630015,9)</title></rect><rect x="228" y="199.58" width="6" height="0.420315" stroke="black" stroke-width="1" fill="blue" tooltip="enable"><title>(0.647042,6)</title></rect><rect x="234" y="199.72" width="6" height="0.28021" stroke="black" stroke-width="1" fill="blue" tooltip="enable"><title>(0.66407,4)</title></rect><rect x="240" y="199.65" width="6" height="0.350263" stroke="black" stroke-width="1" fill="blue" tooltip="enable"><title>(0.681097,5)</title></rect><rect x="246" y="199.44" width="6" height="0.56042" stroke="black" stroke-width="1" fill="blue" tooltip="enable"><title>(0.698125,8)</title></rect><rect x="252" y="199.86" width="6" height="0.140105" stroke="black" stroke-width="1" fill="blue" tooltip="enable"><title>(0.715152,2)</title></rect><rect x="258" y="199.58" width="6" height="0.420315" stroke="black" stroke-width="1" fill="blue" tooltip="enable"><title>(0.73218,6)</title></rect><rect x="264" y="199.58" width="6" height="0.420315" stroke="black" stroke-width="1" fill="blue" tooltip="enable"><title>(0.749207,6)</title></rect><rect x="270" y="199.79" width="6" height="0.210158" stroke="black" stroke-width="1" fill="blue" tooltip="enable"><title>(0.766234,3)</title></rect><rect x="276" y="199.65" width="6" height="0.350263" stroke="black" stroke-width="1" fill="blue" tooltip="enable"><title>(0.783262,5)</title></rect><rect x="282" y="199.93" width="6" height="0.0700525" stroke="black" stroke-width="1" fill="blue" tooltip="enable"><title>(0.800289,1)</title></rect><rect x="288" y="199.72" width="6" height="0.28021" stroke="black" stroke-width="1" fill="blue" tooltip="enable"><title>(0.817317,4)</title></rect><rect x="294" y="199.93" width="6" height="0.0700525" stroke="black" stroke-width="1" fill="blue" tooltip="enable"><title>(0.834344,1)</title></rect><rect x="300" y="199.93" width="6" height="0.0700525" stroke="black" stroke-width="1" fill="blue" tooltip="enable"><title>(0.851372,1)</title></rect><rect x="306" y="199.79" width="6" height="0.210158" stroke="black" stroke-width="1" fill="blue" tooltip="enable"><title>(0.868399,3)</title></rect><rect x="312" y="199.79" width="6" height="0.210158" stroke="black" stroke-width="1" fill="blue" tooltip="enable"><title>(0.885426,3)</title></rect><rect x="318" y="199.72" width="6" height="0.28021" stroke="black" stroke-width="1" fill="blue" tooltip="enable"><title>(0.902454,4)</title></rect><rect x="324" y="199.86" width="6" height="0.140105" stroke="black" stroke-width="1" fill="blue" tooltip="enable"><title>(0.919481,2)</title></rect><rect x="330" y="199.86" width="6" height="0.140105" stroke="black" stroke-width="1" fill="blue" tooltip="enable"><title>(0.936509,2)</title></rect><rect x="336" y="199.93" width="6" height="0.0700525" stroke="black" stroke-width="1" fill="blue" tooltip="enable"><title>(0.953536,1)</title></rect><rect x="342" y="199.86" width="6" height="0.140105" stroke="black" stroke-width="1" fill="blue" tooltip="enable"><title>(0.970564,2)</title></rect><rect x="348" y="199.93" width="6" height="0.0700525" stroke="black" stroke-width="1" fill="blue" tooltip="enable"><title>(0.987591,1)</title></rect><rect x="354" y="199.86" width="6" height="0.140105" stroke="black" stroke-width="1" fill="blue" tooltip="enable"><title>(1.00462,2)</title></rect><rect x="360" y="199.93" width="6" height="0.0700525" stroke="black" stroke-width="1" fill="blue" tooltip="enable"><title>(1.02165,1)</title></rect><rect x="366" y="199.86" width="6" height="0.140105" stroke="black" stroke-width="1" fill="blue" tooltip="enable"><title>(1.03867,2)</title></rect><rect x="372" y="200" width="6" height="0" stroke="black" stroke-width="1" fill="blue" tooltip="enable"><title>(1.0557,0)</title></rect><rect x="378" y="200" width="6" height="0" stroke="black" stroke-width="1" fill="blue" tooltip="enable"><title>(1.07273,0)</title></rect><rect x="384" y="199.86" width="6" height="0.140105" stroke="black" stroke-width="1" fill="blue" tooltip="enable"><title>(1.08976,2)</title></rect><rect x="390" y="199.79" width="6" height="0.210158" stroke="black" stroke-width="1" fill="blue" tooltip="enable"><title>(1.10678,3)</title></rect><rect x="396" y="199.86" width="6" height="0.140105" stroke="black" stroke-width="1" fill="blue" tooltip="enable"><title>(1.12381,2)</title></rect><rect x="402" y="199.93" width="6" height="0.0700525" stroke="black" stroke-width="1" fill="blue" tooltip="enable"><title>(1.14084,1)</title></rect><rect x="408" y="199.79" width="6" height="0.210158" stroke="black" stroke-width="1" fill="blue" tooltip="enable"><title>(1.15787,3)</title></rect><rect x="414" y="200" width="6" height="0" stroke="black" stroke-width="1" fill="blue" tooltip="enable"><title>(1.17489,0)</title></rect><rect x="420" y="200" width="6" height="0" stroke="black" stroke-width="1" fill="blue" tooltip="enable"><title>(1.19192,0)</title></rect><rect x="426" y="199.93" width="6" height="0.0700525" stroke="black" stroke-width="1" fill="blue" tooltip="enable"><title>(1.20895,1)</title></rect><rect x="432" y="199.79" width="6" height="0.210158" stroke="black" stroke-width="1" fill="blue" tooltip="enable"><title>(1.22598,3)</title></rect><rect x="438" y="200" width="6" height="0" stroke="black" stroke-width="1" fill="blue" tooltip="enable"><title>(1.243,0)</title></rect><rect x="444" y="200" width="6" height="0" stroke="black" stroke-width="1" fill="blue" tooltip="enable"><title>(1.26003,0)</title></rect><rect x="450" y="199.86" width="6" height="0.140105" stroke="black" stroke-width="1" fill="blue" tooltip="enable"><title>(1.27706,2)</title></rect><rect x="456" y="200" width="6" height="0" stroke="black" stroke-width="1" fill="blue" tooltip="enable"><title>(1.29408,0)</title></rect><rect x="462" y="200" width="6" height="0" stroke="black" stroke-width="1" fill="blue" tooltip="enable"><title>(1.31111,0)</title></rect><rect x="468" y="200" width="6" height="0" stroke="black" stroke-width="1" fill="blue" tooltip="enable"><title>(1.32814,0)</title></rect><rect x="474" y="200" width="6" height="0" stroke="black" stroke-width="1" fill="blue" tooltip="enable"><title>(1.34517,0)</title></rect><rect x="480" y="200" width="6" height="0" stroke="black" stroke-width="1" fill="blue" tooltip="enable"><title>(1.36219,0)</title></rect><rect x="486" y="200" width="6" height="0" stroke="black" stroke-width="1" fill="blue" tooltip="enable"><title>(1.37922,0)</title></rect><rect x="492" y="199.93" width="6" height="0.0700525" stroke="black" stroke-width="1" fill="blue" tooltip="enable"><title>(1.39625,1)</title></rect><rect x="498" y="199.93" width="6" height="0.0700525" stroke="black" stroke-width="1" fill="blue" tooltip="enable"><title>(1.41328,1)</title></rect><rect x="504" y="200" width="6" height="0" stroke="black" stroke-width="1" fill="blue" tooltip="enable"><title>(1.4303,0)</title></rect><rect x="510" y="200" width="6" height="0" stroke="black" stroke-width="1" fill="blue" tooltip="enable"><title>(1.44733,0)</title></rect><rect x="516" y="200" width="6" height="0" stroke="black" stroke-width="1" fill="blue" tooltip="enable"><title>(1.46436,0)</title></rect><rect x="522" y="200" width="6" height="0" stroke="black" stroke-width="1" fill="blue" tooltip="enable"><title>(1.48139,0)</title></rect><rect x="528" y="199.93" width="6" height="0.0700525" stroke="black" stroke-width="1" fill="blue" tooltip="enable"><title>(1.49841,1)</title></rect><rect x="534" y="199.93" width="6" height="0.0700525" stroke="black" stroke-width="1" fill="blue" tooltip="enable"><title>(1.51544,1)</title></rect><rect x="540" y="200" width="6" height="0" stroke="black" stroke-width="1" fill="blue" tooltip="enable"><title>(1.53247,0)</title></rect><rect x="546" y="199.79" width="6" height="0.210158" stroke="black" stroke-width="1" fill="blue" tooltip="enable"><title>(1.5495,3)</title></rect><rect x="552" y="200" width="6" height="0" stroke="black" stroke-width="1" fill="blue" tooltip="enable"><title>(1.56652,0)</title></rect><rect x="558" y="200" width="6" height="0" stroke="black" stroke-width="1" fill="blue" tooltip="enable"><title>(1.58355,0)</title></rect><rect x="564" y="200" width="6" height="0" stroke="black" stroke-width="1" fill="blue" tooltip="enable"><title>(1.60058,0)</title></rect><rect x="570" y="200" width="6" height="0" stroke="black" stroke-width="1" fill="blue" tooltip="enable"><title>(1.61761,0)</title></rect><rect x="576" y="200" width="6" height="0" stroke="black" stroke-width="1" fill="blue" tooltip="enable"><title>(1.63463,0)</title></rect><rect x="582" y="200" width="6" height="0" stroke="black" stroke-width="1" fill="blue" tooltip="enable"><title>(1.65166,0)</title></rect><rect x="588" y="200" width="6" height="0" stroke="black" stroke-width="1" fill="blue" tooltip="enable"><title>(1.66869,0)</title></rect><rect x="594" y="200" width="6" height="0" stroke="black" stroke-width="1" fill="blue" tooltip="enable"><title>(1.68572,0)</title></rect><text x="30" y="240" font-size="20" fill="black">0</text>
<text x="600" y="240" font-size="20" fill="black">1.70274</text>
<polyline points="0,220,600,220" stroke="black" stroke-width="1" fill="none"/>
<text x="720" y="20" font-size="20" fill="black">2855</text>
<text x="720" y="200" font-size="20" fill="black">0</text>
<polyline points="660,0,660,200" stroke="black" stroke-width="1" fill="none"/>
</svg>