<?xml version="1.0" standalone="yes"?>
<!-- SVG graphic -->
<svg xmlns='http://www.w3.org/2000/svg' xmlns:xlink='http://www.w3.org/1999/xlink'
width="50px" height="50px" preserveAspectRatio="xMinYMin meet" viewBox="0 0 50 50" version="1.1">
<rect x="10" y="0" width="2.5" height="2.5" fill="rgb(10,0,244)" tooltip="enable"><title>(2,0 4)</title></rect><rect x="15" y="0" width="2.5" height="2.5" fill="rgb(49,0,205)" tooltip="enable"><title>(3,0 19)</title></rect><rect x="20" y="0" width="2.5" height="2.5" fill="rgb(26,0,228)" tooltip="enable"><title>(4,0 10)</title></rect><rect x="25" y="0" width="2.5" height="2.5" fill="rgb(20,0,234)" tooltip="enable"><title>(5,0 8)</title></rect><rect x="30" y="0" width="2.5" height="2.5" fill="rgb(78,0,176)" tooltip="enable"><title>(6,0 30)</title></rect><rect x="15" y="10" width="2.5" height="2.5" fill="rgb(88,0,166)" tooltip="enable"><title>(3,2 34)</title></rect><rect x="20" y="10" width="2.5" height="2.5" fill="rgb(67,0,187)" tooltip="enable"><title>(4,2 26)</title></rect><rect x="25" y="10" width="2.5" height="2.5" fill="rgb(57,0,197)" tooltip="enable"><title>(5,2 22)</title></rect><rect x="30" y="10" width="2.5" height="2.5" fill="rgb(88,0,166)" tooltip="enable"><title>(6,2 34)</title></rect><rect x="20" y="15" width="2.5" height="2.5" fill="rgb(111,0,143)" tooltip="enable"><title>(4,3 43)</title></rect><rect x="25" y="15" width="2.5" height="2.5" fill="rgb(88,0,166)" tooltip="enable"><title>(5,3 34)</title></rect><rect x="30" y="15" width="2.5" height="2.5" fill="rgb(148,0,106)" tooltip="enable"><title>(6,3 57)</title></rect><rect x="25" y="20" width="2.5" height="2.5" fill="rgb(119,0,135)" tooltip="enable"><title>(5,4 46)</title></rect><rect x="30" y="20" width="2.5" height="2.5" fill="rgb(169,0,85)" tooltip="enable"><title>(6,4 65)</title></rect><rect x="30" y="25" width="2.5" height="2.5" fill="rgb(255,0,0)" tooltip="enable"><title>(6,5 98)</title></rect><text x="40" y="5" font-size="5" fill="black">0</text>
<text x="40" y="30" font-size="5" fill="black">7</text>
<polyline points="40,10,40,25" stroke="black" stroke-width="1" fill="none"/>
<text x="5" y="40" font-size="5" fill="black">0</text>
<text x="30" y="40" font-size="5" fill="black">7</text>
<polyline points="10,40,25,40" stroke="black" stroke-width="1" fill="none"/>
</svg>