<?xml version="1.0" standalone="yes"?>
<!-- SVG graphic -->
<svg xmlns='http://www.w3.org/2000/svg' xmlns:xlink='http://www.w3.org/1999/xlink'
 version="1.1">
<rect x="0" y="0" width="6" height="200" stroke="black" stroke-width="1" fill="blue" tooltip="enable"><title>(0,3179)</title></rect><rect x="6" y="106.637" width="6" height="93.3627" stroke="black" stroke-width="1" fill="blue" tooltip="enable"><title>(0.021827,1484)</title></rect><rect x="12" y="128.783" width="6" height="71.2174" stroke="black" stroke-width="1" fill="blue" tooltip="enable"><title>(0.0436541,1132)</title></rect><rect x="18" y="147.845" width="6" height="52.1548" stroke="black" stroke-width="1" fill="blue" tooltip="enable"><title>(0.0654811,829)</title></rect><rect x="24" y="153.444" width="6" height="46.5555" stroke="black" stroke-width="1" fill="blue" tooltip="enable"><title>(0.0873082,740)</title></rect><rect x="30" y="168.669" width="6" height="31.3306" stroke="black" stroke-width="1" fill="blue" tooltip="enable"><title>(0.109135,498)</title></rect><rect x="36" y="174.143" width="6" height="25.8572" stroke="black" stroke-width="1" fill="blue" tooltip="enable"><title>(0.130962,411)</title></rect><rect x="42" y="178.861" width="6" height="21.1387" stroke="black" stroke-width="1" fill="blue" tooltip="enable"><title>(0.152789,336)</title></rect><rect x="48" y="182.51" width="6" height="17.4898" stroke="black" stroke-width="1" fill="blue" tooltip="enable"><title>(0.174616,278)</title></rect><rect x="54" y="186.851" width="6" height="13.1488" stroke="black" stroke-width="1" fill="blue" tooltip="enable"><title>(0.196443,209)</title></rect><rect x="60" y="190.311" width="6" height="9.68858" stroke="black" stroke-width="1" fill="blue" tooltip="enable"><title>(0.21827,154)</title></rect><rect x="66" y="190.374" width="6" height="9.62567" stroke="black" stroke-width="1" fill="blue" tooltip="enable"><title>(0.240097,153)</title></rect><rect x="72" y="191.758" width="6" height="8.24159" stroke="black" stroke-width="1" fill="blue" tooltip="enable"><title>(0.261925,131)</title></rect><rect x="78" y="193.394" width="6" height="6.60585" stroke="black" stroke-width="1" fill="blue" tooltip="enable"><title>(0.283752,105)</title></rect><rect x="84" y="194.275" width="6" height="5.72507" stroke="black" stroke-width="1" fill="blue" tooltip="enable"><title>(0.305579,91)</title></rect><rect x="90" y="195.156" width="6" height="4.84429" stroke="black" stroke-width="1" fill="blue" tooltip="enable"><title>(0.327406,77)</title></rect><rect x="96" y="196.225" width="6" height="3.77477" stroke="black" stroke-width="1" fill="blue" tooltip="enable"><title>(0.349233,60)</title></rect><rect x="102" y="196.603" width="6" height="3.39729" stroke="black" stroke-width="1" fill="blue" tooltip="enable"><title>(0.37106,54)</title></rect><rect x="108" y="197.295" width="6" height="2.70525" stroke="black" stroke-width="1" fill="blue" tooltip="enable"><title>(0.392887,43)</title></rect><rect x="114" y="197.421" width="6" height="2.57943" stroke="black" stroke-width="1" fill="blue" tooltip="enable"><title>(0.414714,41)</title></rect><rect x="120" y="198.238" width="6" height="1.76156" stroke="black" stroke-width="1" fill="blue" tooltip="enable"><title>(0.436541,28)</title></rect><rect x="126" y="197.861" width="6" height="2.13904" stroke="black" stroke-width="1" fill="blue" tooltip="enable"><title>(0.458368,34)</title></rect><rect x="132" y="199.182" width="6" height="0.817867" stroke="black" stroke-width="1" fill="blue" tooltip="enable"><title>(0.480195,13)</title></rect><rect x="138" y="198.616" width="6" height="1.38408" stroke="black" stroke-width="1" fill="blue" tooltip="enable"><title>(0.502022,22)</title></rect><rect x="144" y="199.056" width="6" height="0.943693" stroke="black" stroke-width="1" fill="blue" tooltip="enable"><title>(0.523849,15)</title></rect><rect x="150" y="198.805" width="6" height="1.19534" stroke="black" stroke-width="1" fill="blue" tooltip="enable"><title>(0.545676,19)</title></rect><rect x="156" y="198.868" width="6" height="1.13243" stroke="black" stroke-width="1" fill="blue" tooltip="enable"><title>(0.567503,18)</title></rect><rect x="162" y="199.182" width="6" height="0.817867" stroke="black" stroke-width="1" fill="blue" tooltip="enable"><title>(0.58933,13)</title></rect><rect x="168" y="199.245" width="6" height="0.754954" stroke="black" stroke-width="1" fill="blue" tooltip="enable"><title>(0.611157,12)</title></rect><rect x="174" y="199.811" width="6" height="0.188739" stroke="black" stroke-width="1" fill="blue" tooltip="enable"><title>(0.632984,3)</title></rect><rect x="180" y="199.308" width="6" height="0.692042" stroke="black" stroke-width="1" fill="blue" tooltip="enable"><title>(0.654811,11)</title></rect><rect x="186" y="199.811" width="6" height="0.188739" stroke="black" stroke-width="1" fill="blue" tooltip="enable"><title>(0.676638,3)</title></rect><rect x="192" y="199.56" width="6" height="0.44039" stroke="black" stroke-width="1" fill="blue" tooltip="enable"><title>(0.698465,7)</title></rect><rect x="198" y="199.748" width="6" height="0.251651" stroke="black" stroke-width="1" fill="blue" tooltip="enable"><title>(0.720293,4)</title></rect><rect x="204" y="199.623" width="6" height="0.377477" stroke="black" stroke-width="1" fill="blue" tooltip="enable"><title>(0.742119,6)</title></rect><rect x="210" y="199.434" width="6" height="0.566216" stroke="black" stroke-width="1" fill="blue" tooltip="enable"><title>(0.763947,9)</title></rect><rect x="216" y="199.56" width="6" height="0.44039" stroke="black" stroke-width="1" fill="blue" tooltip="enable"><title>(0.785774,7)</title></rect><rect x="222" y="199.56" width="6" height="0.44039" stroke="black" stroke-width="1" fill="blue" tooltip="enable"><title>(0.807601,7)</title></rect><rect x="228" y="199.811" width="6" height="0.188739" stroke="black" stroke-width="1" fill="blue" tooltip="enable"><title>(0.829428,3)</title></rect><rect x="234" y="199.874" width="6" height="0.125826" stroke="black" stroke-width="1" fill="blue" tooltip="enable"><title>(0.851255,2)</title></rect><rect x="240" y="199.748" width="6" height="0.251651" stroke="black" stroke-width="1" fill="blue" tooltip="enable"><title>(0.873082,4)</title></rect><rect x="246" y="199.685" width="6" height="0.314564" stroke="black" stroke-width="1" fill="blue" tooltip="enable"><title>(0.894909,5)</title></rect><rect x="252" y="199.811" width="6" height="0.188739" stroke="black" stroke-width="1" fill="blue" tooltip="enable"><title>(0.916736,3)</title></rect><rect x="258" y="200" width="6" height="0" stroke="black" stroke-width="1" fill="blue" tooltip="enable"><title>(0.938563,0)</title></rect><rect x="264" y="199.937" width="6" height="0.0629129" stroke="black" stroke-width="1" fill="blue" tooltip="enable"><title>(0.96039,1)</title></rect><rect x="270" y="199.811" width="6" height="0.188739" stroke="black" stroke-width="1" fill="blue" tooltip="enable"><title>(0.982217,3)</title></rect><rect x="276" y="199.748" width="6" height="0.251651" stroke="black" stroke-width="1" fill="blue" tooltip="enable"><title>(1.00404,4)</title></rect><rect x="282" y="199.811" width="6" height="0.188739" stroke="black" stroke-width="1" fill="blue" tooltip="enable"><title>(1.02587,3)</title></rect><rect x="288" y="199.874" width="6" height="0.125826" stroke="black" stroke-width="1" fill="blue" tooltip="enable"><title>(1.0477,2)</title></rect><rect x="294" y="199.937" width="6" height="0.0629129" stroke="black" stroke-width="1" fill="blue" tooltip="enable"><title>(1.06953,1)</title></rect><rect x="300" y="199.874" width="6" height="0.125826" stroke="black" stroke-width="1" fill="blue" tooltip="enable"><title>(1.09135,2)</title></rect><rect x="306" y="199.874" width="6" height="0.125826" stroke="black" stroke-width="1" fill="blue" tooltip="enable"><title>(1.11318,2)</title></rect><rect x="312" y="199.811" width="6" height="0.188739" stroke="black" stroke-width="1" fill="blue" tooltip="enable"><title>(1.13501,3)</title></rect><rect x="318" y="199.937" width="6" height="0.0629129" stroke="black" stroke-width="1" fill="blue" tooltip="enable"><title>(1.15683,1)</title></rect><rect x="324" y="199.811" width="6" height="0.188739" stroke="black" stroke-width="1" fill="blue" tooltip="enable"><title>(1.17866,3)</title></rect><rect x="330" y="199.937" width="6" height="0.0629129" stroke="black" stroke-width="1" fill="blue" tooltip="enable"><title>(1.20049,1)</title></rect><rect x="336" y="200" width="6" height="0" stroke="black" stroke-width="1" fill="blue" tooltip="enable"><title>(1.22231,0)</title></rect><rect x="342" y="199.874" width="6" height="0.125826" stroke="black" stroke-width="1" fill="blue" tooltip="enable"><title>(1.24414,2)</title></rect><rect x="348" y="200" width="6" height="0" stroke="black" stroke-width="1" fill="blue" tooltip="enable"><title>(1.26597,0)</title></rect><rect x="354" y="199.937" width="6" height="0.0629129" stroke="black" stroke-width="1" fill="blue" tooltip="enable"><title>(1.2878,1)</title></rect><rect x="360" y="200" width="6" height="0" stroke="black" stroke-width="1" fill="blue" tooltip="enable"><title>(1.30962,0)</title></rect><rect x="366" y="200" width="6" height="0" stroke="black" stroke-width="1" fill="blue" tooltip="enable"><title>(1.33145,0)</title></rect><rect x="372" y="199.937" width="6" height="0.0629129" stroke="black" stroke-width="1" fill="blue" tooltip="enable"><title>(1.35328,1)</title></rect><rect x="378" y="199.937" width="6" height="0.0629129" stroke="black" stroke-width="1" fill="blue" tooltip="enable"><title>(1.3751,1)</title></rect><rect x="384" y="200" width="6" height="0" stroke="black" stroke-width="1" fill="blue" tooltip="enable"><title>(1.39693,0)</title></rect><rect x="390" y="199.937" width="6" height="0.0629129" stroke="black" stroke-width="1" fill="blue" tooltip="enable"><title>(1.41876,1)</title></rect><rect x="396" y="200" width="6" height="0" stroke="black" stroke-width="1" fill="blue" tooltip="enable"><title>(1.44059,0)</title></rect><rect x="402" y="199.937" width="6" height="0.0629129" stroke="black" stroke-width="1" fill="blue" tooltip="enable"><title>(1.46241,1)</title></rect><rect x="408" y="199.937" width="6" height="0.0629129" stroke="black" stroke-width="1" fill="blue" tooltip="enable"><title>(1.48424,1)</title></rect><rect x="414" y="200" width="6" height="0" stroke="black" stroke-width="1" fill="blue" tooltip="enable"><title>(1.50607,0)</title></rect><rect x="420" y="199.874" width="6" height="0.125826" stroke="black" stroke-width="1" fill="blue" tooltip="enable"><title>(1.52789,2)</title></rect><rect x="426" y="199.937" width="6" height="0.0629129" stroke="black" stroke-width="1" fill="blue" tooltip="enable"><title>(1.54972,1)</title></rect><rect x="432" y="200" width="6" height="0" stroke="black" stroke-width="1" fill="blue" tooltip="enable"><title>(1.57155,0)</title></rect><rect x="438" y="200" width="6" height="0" stroke="black" stroke-width="1" fill="blue" tooltip="enable"><title>(1.59337,0)</title></rect><rect x="444" y="199.937" width="6" height="0.0629129" stroke="black" stroke-width="1" fill="blue" tooltip="enable"><title>(1.6152,1)</title></rect><rect x="450" y="200" width="6" height="0" stroke="black" stroke-width="1" fill="blue" tooltip="enable"><title>(1.63703,0)</title></rect><rect x="456" y="199.937" width="6" height="0.0629129" stroke="black" stroke-width="1" fill="blue" tooltip="enable"><title>(1.65886,1)</title></rect><rect x="462" y="200" width="6" height="0" stroke="black" stroke-width="1" fill="blue" tooltip="enable"><title>(1.68068,0)</title></rect><rect x="468" y="200" width="6" height="0" stroke="black" stroke-width="1" fill="blue" tooltip="enable"><title>(1.70251,0)</title></rect><rect x="474" y="200" width="6" height="0" stroke="black" stroke-width="1" fill="blue" tooltip="enable"><title>(1.72434,0)</title></rect><rect x="480" y="200" width="6" height="0" stroke="black" stroke-width="1" fill="blue" tooltip="enable"><title>(1.74616,0)</title></rect><rect x="486" y="200" width="6" height="0" stroke="black" stroke-width="1" fill="blue" tooltip="enable"><title>(1.76799,0)</title></rect><rect x="492" y="200" width="6" height="0" stroke="black" stroke-width="1" fill="blue" tooltip="enable"><title>(1.78982,0)</title></rect><rect x="498" y="200" width="6" height="0" stroke="black" stroke-width="1" fill="blue" tooltip="enable"><title>(1.81164,0)</title></rect><rect x="504" y="200" width="6" height="0" stroke="black" stroke-width="1" fill="blue" tooltip="enable"><title>(1.83347,0)</title></rect><rect x="510" y="200" width="6" height="0" stroke="black" stroke-width="1" fill="blue" tooltip="enable"><title>(1.8553,0)</title></rect><rect x="516" y="200" width="6" height="0" stroke="black" stroke-width="1" fill="blue" tooltip="enable"><title>(1.87713,0)</title></rect><rect x="522" y="200" width="6" height="0" stroke="black" stroke-width="1" fill="blue" tooltip="enable"><title>(1.89895,0)</title></rect><rect x="528" y="200" width="6" height="0" stroke="black" stroke-width="1" fill="blue" tooltip="enable"><title>(1.92078,0)</title></rect><rect x="534" y="200" width="6" height="0" stroke="black" stroke-width="1" fill="blue" tooltip="enable"><title>(1.94261,0)</title></rect><rect x="540" y="200" width="6" height="0" stroke="black" stroke-width="1" fill="blue" tooltip="enable"><title>(1.96443,0)</title></rect><rect x="546" y="200" width="6" height="0" stroke="black" stroke-width="1" fill="blue" tooltip="enable"><title>(1.98626,0)</title></rect><rect x="552" y="200" width="6" height="0" stroke="black" stroke-width="1" fill="blue" tooltip="enable"><title>(2.00809,0)</title></rect><rect x="558" y="200" width="6" height="0" stroke="black" stroke-width="1" fill="blue" tooltip="enable"><title>(2.02992,0)</title></rect><rect x="564" y="200" width="6" height="0" stroke="black" stroke-width="1" fill="blue" tooltip="enable"><title>(2.05174,0)</title></rect><rect x="570" y="200" width="6" height="0" stroke="black" stroke-width="1" fill="blue" tooltip="enable"><title>(2.07357,0)</title></rect><rect x="576" y="199.937" width="6" height="0.0629129" stroke="black" stroke-width="1" fill="blue" tooltip="enable"><title>(2.0954,1)</title></rect><rect x="582" y="200" width="6" height="0" stroke="black" stroke-width="1" fill="blue" tooltip="enable"><title>(2.11722,0)</title></rect><rect x="588" y="200" width="6" height="0" stroke="black" stroke-width="1" fill="blue" tooltip="enable"><title>(2.13905,0)</title></rect><rect x="594" y="200" width="6" height="0" stroke="black" stroke-width="1" fill="blue" tooltip="enable"><title>(2.16088,0)</title></rect><text x="30" y="240" font-size="20" fill="black">0</text>
<text x="600" y="240" font-size="20" fill="black">2.1827</text>
<polyline points="0,220,600,220" stroke="black" stroke-width="1" fill="none"/>
<text x="720" y="20" font-size="20" fill="black">3179</text>
<text x="720" y="200" font-size="20" fill="black">0</text>
<polyline points="660,0,660,200" stroke="black" stroke-width="1" fill="none"/>
</svg>